<?xml version="1.0" encoding="UTF-8" ?>
<!DOCTYPE svg PUBLIC "-//W3C//DTD SVG 1.1//EN" "http://www.w3.org/Graphics/SVG/1.1/DTD/svg11.dtd">
<svg width="300pt" height="300pt" viewBox="0 0 300 300" version="1.1" xmlns="http://www.w3.org/2000/svg">
<g id="#e94242ff">
<path fill="#e94242" opacity="1.00" d=" M 214.24 92.00 C 215.86 92.00 217.50 92.00 219.13 92.00 C 214.80 112.44 210.29 132.84 205.89 153.26 C 204.30 153.25 202.71 153.25 201.13 153.26 C 199.57 146.55 198.08 139.83 196.51 133.13 C 194.96 139.84 193.47 146.57 191.89 153.28 C 190.30 153.25 188.71 153.23 187.13 153.21 C 185.44 141.46 183.61 129.74 181.92 118.00 C 183.55 118.00 185.19 118.00 186.83 118.02 C 187.98 127.21 188.76 136.47 190.23 145.63 C 190.53 145.49 191.14 145.23 191.44 145.09 L 190.22 144.90 C 191.53 139.20 192.65 133.46 193.89 127.75 C 195.63 127.75 197.36 127.75 199.10 127.75 C 200.46 133.60 201.41 139.55 203.06 145.33 C 206.93 127.59 210.51 109.78 214.24 92.00 Z" />
</g>
<g id="#343435ff">
<path fill="#343435" opacity="1.00" d=" M 82.00 100.75 C 122.50 100.75 162.99 100.75 203.48 100.75 C 203.48 102.82 203.52 104.89 203.53 106.96 C 165.10 107.06 126.67 106.97 88.25 107.01 C 88.25 125.67 88.25 144.33 88.25 162.99 C 133.33 163.01 178.41 163.00 223.50 163.00 C 223.51 142.25 223.48 121.50 223.51 100.75 C 225.59 100.75 227.67 100.75 229.75 100.76 C 229.75 123.59 229.75 146.42 229.74 169.25 C 180.50 169.26 131.25 169.25 82.00 169.25 C 82.00 146.42 82.00 123.58 82.00 100.75 Z" />
<path fill="#343435" opacity="1.00" d=" M 105.24 118.27 C 109.49 116.69 115.05 117.19 118.04 120.93 C 121.19 124.87 121.59 130.17 121.76 135.02 C 121.72 139.99 121.47 145.33 118.73 149.65 C 114.72 155.98 103.56 155.50 100.39 148.58 C 97.71 142.80 97.71 136.14 98.40 129.93 C 98.97 125.39 100.64 120.16 105.24 118.27 M 107.20 122.18 C 103.93 124.21 103.72 128.48 103.37 131.92 C 103.15 136.95 102.96 142.30 105.00 147.01 C 106.67 150.68 112.50 150.92 114.50 147.44 C 116.44 144.00 116.42 139.87 116.54 136.03 C 116.45 132.11 116.51 127.94 114.67 124.37 C 113.36 121.71 109.75 120.73 107.20 122.18 Z" />
<path fill="#343435" opacity="1.00" d=" M 132.70 118.85 C 137.61 116.37 143.27 117.66 148.25 119.21 C 148.24 120.92 148.24 122.63 148.25 124.34 C 144.19 122.22 139.03 120.11 134.72 122.79 C 131.61 124.49 131.23 129.80 134.60 131.40 C 138.99 133.43 144.58 133.09 148.05 136.91 C 151.83 141.64 150.83 150.30 144.87 152.81 C 139.44 155.01 133.31 154.01 127.98 152.00 C 127.99 150.23 128.00 148.46 127.99 146.69 C 132.22 149.05 137.41 151.24 142.19 149.10 C 146.14 147.54 146.67 141.17 142.84 139.19 C 138.46 137.07 132.81 137.50 129.31 133.69 C 125.75 129.13 127.35 121.33 132.70 118.85 Z" />
<path fill="#343435" opacity="1.00" d=" M 156.25 118.01 C 157.91 118.00 159.58 118.00 161.25 118.00 C 161.25 122.83 161.25 127.67 161.26 132.50 C 165.50 132.50 169.74 132.49 173.98 132.51 C 174.01 127.67 174.00 122.84 174.00 118.00 C 175.66 118.00 177.33 118.00 179.00 118.00 C 179.00 129.75 179.00 141.50 179.00 153.25 C 177.33 153.25 175.67 153.25 174.00 153.25 C 173.99 147.75 174.01 142.25 174.00 136.75 C 169.75 136.74 165.50 136.74 161.25 136.76 C 161.25 142.25 161.26 147.75 161.25 153.25 C 159.58 153.24 157.92 153.24 156.25 153.24 C 156.25 141.50 156.26 129.75 156.25 118.01 Z" />
<path fill="#343435" opacity="1.00" d=" M 82.75 185.27 C 83.53 185.26 85.10 185.23 85.89 185.22 C 87.74 191.86 89.44 198.54 91.26 205.19 C 93.02 198.55 94.78 191.92 96.57 185.29 C 97.63 185.26 98.69 185.24 99.75 185.21 C 97.54 192.73 95.33 200.25 93.10 207.76 C 91.86 207.74 90.61 207.74 89.37 207.75 C 87.19 200.25 84.97 192.76 82.75 185.27 Z" />
<path fill="#343435" opacity="1.00" d=" M 103.76 185.26 C 108.27 185.25 112.79 185.22 117.30 185.30 C 117.29 185.91 117.25 187.13 117.24 187.73 C 113.74 187.75 110.25 187.75 106.75 187.75 C 106.75 190.00 106.74 192.24 106.75 194.49 C 110.07 194.50 113.38 194.50 116.70 194.49 C 116.73 195.11 116.78 196.34 116.81 196.96 C 113.46 197.01 110.10 197.00 106.75 197.01 C 106.74 199.75 106.74 202.50 106.75 205.25 C 110.34 205.25 113.92 205.25 117.51 205.26 C 117.51 205.88 117.51 207.12 117.51 207.73 C 112.93 207.75 108.34 207.75 103.76 207.74 C 103.74 200.25 103.74 192.75 103.76 185.26 Z" />
<path fill="#343435" opacity="1.00" d=" M 125.39 185.52 C 128.82 183.51 133.71 185.33 134.84 189.19 C 136.56 194.08 136.52 199.75 134.51 204.56 C 132.84 208.71 126.65 209.56 123.79 206.20 C 121.21 203.10 121.21 198.73 121.27 194.91 C 121.51 191.51 122.15 187.38 125.39 185.52 M 127.41 187.44 C 124.05 189.18 124.35 193.80 124.22 197.04 C 124.37 200.12 124.41 204.79 128.10 205.76 C 131.03 206.22 132.43 203.19 132.72 200.78 C 133.17 196.98 133.39 192.90 131.82 189.33 C 131.22 187.57 129.07 186.84 127.41 187.44 Z" />
<path fill="#343435" opacity="1.00" d=" M 144.37 185.41 C 147.56 183.71 152.06 185.17 153.34 188.63 C 155.40 193.79 155.37 199.97 153.02 205.02 C 150.91 209.30 144.08 209.32 141.78 205.20 C 139.79 201.51 139.79 197.11 140.18 193.04 C 140.58 190.14 141.53 186.80 144.37 185.41 M 146.36 187.38 C 142.77 188.93 143.11 193.81 142.97 197.09 C 143.10 200.20 143.21 205.19 147.17 205.77 C 149.92 206.01 151.12 203.12 151.45 200.87 C 151.93 197.08 152.13 193.01 150.61 189.42 C 150.03 187.71 148.03 186.85 146.36 187.38 Z" />
<path fill="#343435" opacity="1.00" d=" M 163.21 185.36 C 166.48 183.72 170.92 185.26 172.17 188.77 C 174.06 193.62 174.01 199.28 172.21 204.15 C 170.79 208.46 164.60 209.69 161.53 206.44 C 158.73 203.42 158.72 198.92 158.75 195.05 C 158.98 191.52 159.69 187.11 163.21 185.36 M 164.45 187.60 C 162.14 189.25 161.94 192.41 161.74 194.99 C 161.72 198.18 161.57 201.74 163.46 204.48 C 164.99 206.59 168.67 205.97 169.42 203.48 C 170.96 199.29 170.86 194.53 169.72 190.26 C 169.28 187.93 166.59 186.46 164.45 187.60 Z" />
<path fill="#343435" opacity="1.00" d=" M 181.39 185.53 C 184.54 183.70 189.12 185.01 190.51 188.46 C 192.64 193.49 192.59 199.52 190.51 204.56 C 188.84 208.72 182.63 209.56 179.78 206.19 C 177.21 203.09 177.21 198.72 177.27 194.90 C 177.50 191.51 178.15 187.38 181.39 185.53 M 183.41 187.44 C 180.05 189.19 180.35 193.82 180.22 197.07 C 180.37 200.14 180.42 204.81 184.11 205.76 C 187.02 206.21 188.43 203.19 188.72 200.79 C 189.17 196.96 189.40 192.84 187.78 189.24 C 187.15 187.53 185.03 186.85 183.41 187.44 Z" />
<path fill="#343435" opacity="1.00" d=" M 200.42 185.39 C 203.60 183.73 208.04 185.17 209.33 188.60 C 211.40 193.76 211.37 199.94 209.03 205.00 C 206.94 209.28 200.13 209.33 197.80 205.24 C 195.78 201.53 195.79 197.10 196.18 193.01 C 196.58 190.11 197.55 186.75 200.42 185.39 M 202.34 187.39 C 198.79 188.94 199.10 193.77 198.97 197.03 C 199.11 200.16 199.19 205.14 203.14 205.77 C 205.89 206.04 207.12 203.14 207.45 200.88 C 207.93 197.09 208.13 193.01 206.61 189.41 C 206.03 187.71 204.01 186.85 202.34 187.39 Z" />
<path fill="#343435" opacity="1.00" d=" M 216.28 188.74 C 215.99 184.36 221.66 185.74 224.52 185.21 C 224.49 191.89 224.49 198.57 224.51 205.25 C 226.09 205.25 227.67 205.26 229.25 205.27 C 229.26 205.88 229.27 207.11 229.27 207.72 C 225.09 207.76 220.92 207.76 216.74 207.73 C 216.74 207.12 216.74 205.89 216.74 205.27 C 218.33 205.26 219.91 205.25 221.49 205.24 C 221.51 199.43 221.49 193.61 221.51 187.80 C 219.76 188.12 218.02 188.44 216.28 188.74 Z" />
<path fill="#343435" opacity="1.00" d=" M 126.70 198.31 C 126.35 196.74 126.53 193.96 128.85 194.53 C 130.82 194.65 130.39 196.96 130.30 198.30 C 129.10 198.25 127.90 198.24 126.70 198.31 Z" />
<path fill="#343435" opacity="1.00" d=" M 146.45 194.59 C 148.73 193.49 150.62 197.41 148.12 198.30 C 145.78 199.67 143.87 195.56 146.45 194.59 Z" />
<path fill="#343435" opacity="1.00" d=" M 165.41 194.57 C 167.92 193.57 169.20 198.02 166.50 198.46 C 164.03 199.27 162.87 195.11 165.41 194.57 Z" />
<path fill="#343435" opacity="1.00" d=" M 183.02 195.00 C 185.36 193.21 187.20 196.06 186.29 198.28 C 184.07 199.22 181.18 197.33 183.02 195.00 Z" />
<path fill="#343435" opacity="1.00" d=" M 202.43 194.61 C 204.67 193.47 206.61 197.31 204.18 198.27 C 201.86 199.78 199.84 195.56 202.43 194.61 Z" />
</g>
</svg>
