<?xml version="1.0" encoding="UTF-8" ?>
<!DOCTYPE svg PUBLIC "-//W3C//DTD SVG 1.1//EN" "http://www.w3.org/Graphics/SVG/1.1/DTD/svg11.dtd">
<svg width="611pt" height="112pt" viewBox="0 0 611 112" version="1.1" xmlns="http://www.w3.org/2000/svg">
<g id="#0fa9efff">
<path fill="#0fa9ef" opacity="1.00" d=" M 371.57 0.00 L 416.02 0.00 C 421.24 2.03 426.99 3.83 430.68 8.32 C 434.12 12.35 435.18 17.80 435.11 22.97 C 435.15 41.31 435.10 59.66 435.14 78.00 C 435.13 82.39 435.02 86.97 433.00 90.98 C 430.68 95.93 425.88 99.15 420.95 101.15 C 414.94 103.61 408.31 102.52 402.00 102.76 C 397.93 102.56 393.70 103.33 389.75 102.16 C 383.99 98.89 384.65 86.82 392.21 86.38 C 399.06 85.81 405.98 86.81 412.80 85.91 C 416.26 85.14 416.86 80.98 416.82 78.02 C 416.81 60.34 416.81 42.66 416.83 24.98 C 416.81 22.40 416.52 19.38 414.30 17.70 C 412.09 16.50 409.45 16.77 407.02 16.66 C 398.89 16.73 390.76 16.62 382.63 16.74 C 382.52 42.51 382.48 68.28 382.52 94.05 C 382.48 96.36 382.46 98.98 380.73 100.76 C 377.46 104.30 371.68 104.49 367.58 102.41 C 364.54 100.83 364.19 97.10 364.28 94.07 C 364.41 65.41 364.17 36.73 364.40 8.07 C 364.15 3.76 368.00 1.27 371.57 0.00 Z" />
<path fill="#0fa9ef" opacity="1.00" d=" M 534.92 12.94 C 537.82 5.64 545.61 1.58 553.01 0.44 C 561.99 0.10 571.00 0.43 580.00 0.29 C 586.62 -0.09 593.24 2.48 598.22 6.78 C 602.11 10.36 604.00 15.72 604.02 20.94 C 604.06 40.98 604.02 61.01 604.04 81.05 C 604.22 84.53 602.92 87.79 601.92 91.05 C 603.72 95.77 611.10 97.99 610.25 103.95 C 609.23 107.71 605.38 111.69 601.20 110.91 C 596.95 108.65 594.12 104.51 590.65 101.29 C 587.49 102.02 584.31 102.78 581.06 102.75 C 572.68 102.75 564.31 102.77 555.94 102.74 C 549.91 102.83 544.11 100.24 539.53 96.45 C 535.11 92.69 533.24 86.73 533.28 81.06 C 533.20 62.37 533.28 43.68 533.24 24.98 C 533.22 20.93 533.29 16.73 534.92 12.94 M 554.42 17.43 C 551.77 18.88 551.20 22.18 551.30 24.94 C 551.34 42.97 551.27 61.01 551.33 79.04 C 551.23 82.00 552.70 85.71 556.04 86.06 C 562.67 86.51 569.34 86.11 575.99 86.27 C 579.26 86.32 583.24 86.32 585.43 83.46 C 586.35 81.45 586.05 79.15 586.15 77.01 C 586.00 59.31 586.01 41.60 585.94 23.89 C 586.04 20.86 584.48 17.02 580.97 16.91 C 575.00 16.40 568.99 16.83 563.01 16.67 C 560.15 16.78 557.13 16.34 554.42 17.43 Z" />
<path fill="#0fa9ef" opacity="1.00" d=" M 466.63 26.62 C 471.98 23.79 478.15 24.21 484.00 24.25 C 491.05 24.37 498.59 23.35 505.03 26.94 C 512.16 29.87 516.79 37.28 516.67 44.93 C 516.67 62.28 516.77 79.63 516.62 96.97 C 516.70 101.44 512.07 104.10 508.02 103.71 C 504.34 104.17 499.88 102.16 499.76 97.98 C 499.51 89.00 499.55 80.00 499.64 71.01 C 491.45 70.34 483.19 70.75 474.98 70.79 C 470.56 70.37 469.11 75.47 469.15 78.96 C 469.16 81.71 468.66 85.97 472.17 86.79 C 478.83 88.03 485.71 86.50 492.37 87.64 C 497.18 89.41 497.36 96.24 495.14 100.10 C 492.78 103.91 487.70 102.47 483.99 102.76 C 474.55 103.00 463.93 103.31 456.41 96.58 C 451.09 91.15 451.75 82.98 451.82 75.98 C 451.76 70.21 453.92 64.21 458.50 60.52 C 462.83 57.06 468.42 55.30 473.94 55.31 C 482.44 55.28 490.93 55.37 499.42 55.27 C 499.35 51.27 500.05 47.11 498.96 43.20 C 498.02 40.29 494.73 39.59 492.04 39.75 C 486.42 39.91 480.74 39.36 475.16 40.08 C 470.77 41.16 471.81 46.51 471.00 49.85 C 469.42 55.47 461.78 56.11 457.35 53.68 C 453.42 51.26 453.81 46.00 454.27 42.03 C 455.05 35.05 460.22 29.19 466.63 26.62 Z" />
<path fill="#0fa9ef" opacity="1.00" d=" M 566.43 60.63 C 573.98 58.42 582.18 65.16 581.46 73.00 C 581.49 80.15 574.23 86.06 567.24 84.54 C 559.95 83.44 555.46 74.96 558.11 68.20 C 559.44 64.55 562.63 61.56 566.43 60.63 Z" />
</g>
<g id="#333333ff">
<path fill="#333333" opacity="1.00" d=" M 14.39 11.37 C 15.84 4.35 26.91 2.50 30.96 8.01 C 32.84 13.27 29.84 18.77 29.71 24.14 C 33.44 24.50 37.41 23.67 40.98 25.00 C 44.84 27.49 43.45 33.23 41.56 36.59 C 38.25 41.69 31.50 38.80 26.58 40.15 C 24.44 54.23 21.67 68.21 19.31 82.26 C 19.27 83.78 18.46 86.06 20.25 86.90 C 23.45 87.60 26.90 86.76 29.99 87.98 C 32.84 89.49 32.64 93.26 32.01 95.95 C 31.46 99.07 29.21 102.29 25.84 102.61 C 18.72 103.33 11.04 102.25 5.25 97.76 C 1.36 94.51 0.84 88.95 1.50 84.25 C 3.85 69.50 6.97 54.87 9.03 40.08 C 6.32 39.62 2.53 39.81 1.46 36.61 C 0.20 32.61 1.25 27.38 5.10 25.14 C 7.22 24.15 9.64 24.29 11.92 24.07 C 13.08 19.90 13.35 15.56 14.39 11.37 Z" />
<path fill="#333333" opacity="1.00" d=" M 65.02 26.04 C 70.83 22.79 77.59 23.16 84.00 23.26 C 91.92 23.45 100.49 22.07 107.59 26.47 C 113.33 29.21 115.72 36.07 114.97 42.07 C 114.24 48.39 112.81 54.62 111.84 60.91 C 111.26 65.56 107.87 70.41 102.81 70.56 C 94.20 70.90 85.57 70.55 76.96 70.72 C 74.15 70.72 70.53 71.05 68.93 68.17 C 67.03 63.60 68.95 56.49 74.37 55.48 C 81.47 54.89 88.64 55.79 95.74 55.05 C 96.26 50.72 97.68 46.42 97.29 42.04 C 96.94 38.93 93.50 38.67 91.04 38.73 C 85.37 38.82 79.68 38.45 74.03 39.00 C 70.28 39.51 68.43 43.45 67.91 46.79 C 66.02 57.94 63.96 69.05 62.08 80.19 C 61.67 82.54 61.69 85.77 64.26 86.88 C 69.12 87.67 74.09 87.10 79.00 87.28 C 82.57 87.19 87.11 87.84 89.49 84.50 C 91.74 80.97 91.14 75.44 95.59 73.52 C 99.70 71.64 107.05 71.63 108.36 77.02 C 108.87 84.41 105.52 92.07 99.54 96.53 C 94.53 100.28 88.41 102.88 82.06 102.74 C 75.35 102.73 68.64 102.79 61.93 102.72 C 56.34 102.71 50.66 100.15 47.26 95.66 C 43.94 91.09 43.83 85.11 44.84 79.77 C 47.05 67.64 49.04 55.47 51.34 43.36 C 52.69 35.76 57.89 29.05 65.02 26.04 Z" />
<path fill="#333333" opacity="1.00" d=" M 151.41 24.59 C 157.58 24.00 163.79 24.26 169.97 24.30 C 172.33 24.19 174.89 25.54 175.33 28.04 C 176.07 32.21 174.94 37.89 170.38 39.35 C 164.04 40.47 157.50 39.00 151.15 40.18 C 149.03 40.76 148.43 43.21 148.01 45.09 C 144.88 62.27 142.05 79.50 138.82 96.66 C 137.86 103.72 128.26 105.76 123.17 101.87 C 120.64 99.60 121.58 95.88 122.01 92.96 C 124.98 76.60 127.78 60.22 130.71 43.86 C 131.70 38.22 134.21 32.43 139.14 29.17 C 142.80 26.72 147.06 25.20 151.41 24.59 Z" />
<path fill="#333333" opacity="1.00" d=" M 193.01 30.03 C 197.72 26.86 203.16 24.38 208.92 24.29 C 213.59 24.22 218.27 24.14 222.94 24.36 C 226.95 24.54 230.59 26.40 234.11 28.16 C 238.82 26.14 243.69 24.02 248.94 24.26 C 255.53 24.52 262.57 23.22 268.76 26.15 C 272.62 28.02 276.37 30.83 278.05 34.93 C 279.91 39.54 279.10 44.64 278.27 49.39 C 275.29 65.45 272.71 81.60 269.63 97.65 C 268.37 104.29 259.38 105.91 254.36 102.64 C 251.82 100.80 252.21 97.34 252.70 94.64 C 255.50 79.46 258.05 64.22 260.83 49.03 C 261.27 46.30 261.88 43.22 260.26 40.75 C 258.42 39.54 256.10 39.82 254.02 39.69 C 250.80 39.77 247.47 39.42 244.34 40.34 C 241.08 41.75 240.12 45.59 239.47 48.74 C 236.52 65.09 233.82 81.49 230.73 97.80 C 229.42 104.18 221.04 105.73 216.01 102.95 C 213.25 101.35 213.39 97.79 213.92 95.07 C 216.61 79.72 219.33 64.37 222.07 49.03 C 222.55 46.26 222.86 43.20 221.36 40.67 C 218.45 39.30 215.11 39.82 212.00 39.69 C 209.36 39.84 206.34 39.43 204.10 41.14 C 201.90 43.08 201.24 46.11 200.69 48.86 C 198.02 64.05 195.32 79.24 192.67 94.44 C 192.11 96.99 191.84 99.93 189.77 101.77 C 186.54 104.64 181.55 104.83 177.70 103.24 C 174.94 102.01 174.31 98.66 174.90 95.98 C 177.81 79.18 180.81 62.40 183.77 45.62 C 184.83 39.54 187.85 33.61 193.01 30.03 Z" />
<path fill="#333333" opacity="1.00" d=" M 315.41 24.66 C 322.58 23.79 329.83 24.48 337.04 24.24 C 343.09 23.96 349.18 26.29 353.58 30.42 C 357.74 34.54 358.25 40.90 357.28 46.38 C 355.55 55.91 353.94 65.47 352.20 74.99 C 351.34 79.63 350.87 84.44 348.81 88.74 C 345.16 96.44 336.96 101.16 328.78 102.51 C 321.52 103.03 314.22 102.62 306.94 102.75 C 300.26 102.99 293.38 100.01 289.53 94.45 C 286.31 89.58 287.14 83.42 288.15 78.00 C 290.45 66.17 292.11 54.20 294.66 42.42 C 297.04 32.82 306.11 26.54 315.41 24.66 M 315.40 40.40 C 312.28 41.76 311.09 45.27 310.61 48.38 C 308.83 59.30 306.69 70.17 304.95 81.09 C 304.43 83.43 305.28 86.77 308.08 87.05 C 313.03 87.52 318.03 87.16 323.00 87.28 C 325.84 87.17 329.22 87.60 331.39 85.35 C 334.12 82.68 334.30 78.64 334.99 75.11 C 336.54 65.04 338.73 55.07 340.11 44.97 C 340.61 42.46 338.76 39.60 336.01 39.84 C 329.16 39.91 322.13 39.05 315.40 40.40 Z" />
</g>
</svg>
